<svg width="392" height="319" viewBox="0 0 392 319" fill="none" xmlns="http://www.w3.org/2000/svg">
<path fill-rule="evenodd" clip-rule="evenodd" d="M212.95 0.433513C260.075 4.49684 302.804 18.5418 339.67 52.9035C439.333 145.653 391.193 244.675 241.473 263.313C154.212 274.178 179.128 302.357 207.764 308.982C219.376 311.632 219.602 315.077 208.553 317.55C158.722 328.415 -14.6733 255.01 0.997681 132.05C7.53662 80.3751 36.06 45.0418 87.5824 24.6368C109.003 16.1568 111.483 20.2202 90.6263 29.8485C74.6172 37.1802 59.059 48.0452 49.0251 58.8218C32.0013 77.1952 20.2763 102.547 17.4578 127.368C9.34042 199.713 61.652 263.402 135.723 292.463C143.502 295.467 170.785 304.388 172.363 304.388C173.829 304.388 143.502 268.26 224.788 258.897C265.036 254.215 282.06 250.858 302.128 243.438C372.703 217.38 391.982 157.048 350.493 92.3885C298.52 11.3868 220.616 3.43685 143.84 15.0968C120.39 18.6302 117.91 13.7718 141.585 8.20685C168.53 1.67018 194.686 -1.15649 212.95 0.433513Z" fill="black"/>
</svg>