<svg width="503" height="503" viewBox="0 0 503 503" fill="none" xmlns="http://www.w3.org/2000/svg">
<g clip-path="url(#clip0_1055_33)">
<path d="M55.4001 251.501C55.4001 304.862 76.5979 356.038 114.33 393.771C152.063 431.503 203.239 452.701 256.6 452.701C309.962 452.701 361.138 431.503 398.87 393.771C436.602 356.038 457.8 304.862 457.8 251.501C457.8 198.139 436.602 146.963 398.87 109.231C361.138 71.4984 309.962 50.3006 256.6 50.3006C203.239 50.3006 152.063 71.4984 114.33 109.231C76.5979 146.963 55.4001 198.139 55.4001 251.501Z" fill="#466DA3" stroke="#DAEDF7" stroke-width="1.50648"/>
<path d="M45.1848 338.088C45.1848 359.709 53.7736 380.444 69.0618 395.732C84.35 411.02 105.085 419.609 126.706 419.609C148.327 419.609 169.062 411.02 184.35 395.732C199.638 380.444 208.227 359.709 208.227 338.088C208.227 316.467 199.638 295.732 184.35 280.444C169.062 265.156 148.327 256.567 126.706 256.567C105.085 256.567 84.35 265.156 69.0618 280.444C53.7736 295.732 45.1848 316.467 45.1848 338.088Z" fill="#FF6242"/>
<path d="M126.712 280.506C146.259 280.509 165.154 287.533 179.956 300.3C194.758 313.067 204.48 330.726 207.353 350.061C209.067 338.473 208.264 326.652 204.998 315.403C201.732 304.153 196.08 293.74 188.428 284.871C180.775 276.003 171.3 268.888 160.65 264.011C149.999 259.134 138.423 256.609 126.709 256.609C114.995 256.609 103.419 259.134 92.7685 264.011C82.1181 268.888 72.6438 276.003 64.9909 284.871C57.338 293.74 51.6861 304.153 48.4203 315.403C45.1545 326.652 44.3514 338.473 46.0657 350.061C48.9372 330.725 58.6604 313.064 73.4633 300.297C88.2663 287.53 107.164 280.507 126.712 280.506Z" fill="#FF866E"/>
<path d="M45.1848 338.088C45.1848 359.709 53.7736 380.444 69.0618 395.732C84.35 411.02 105.085 419.609 126.706 419.609C148.327 419.609 169.062 411.02 184.35 395.732C199.638 380.444 208.227 359.709 208.227 338.088C208.227 316.467 199.638 295.732 184.35 280.444C169.062 265.156 148.327 256.567 126.706 256.567C105.085 256.567 84.35 265.156 69.0618 280.444C53.7736 295.732 45.1848 316.467 45.1848 338.088V338.088Z" stroke="#45413C" stroke-width="1.50648" stroke-linecap="round" stroke-linejoin="round"/>
<path d="M98.7261 322.812C98.7261 325.244 99.6922 327.576 101.412 329.296C103.131 331.015 105.464 331.981 107.896 331.981C110.328 331.981 112.66 331.015 114.38 329.296C116.099 327.576 117.065 325.244 117.065 322.812C117.065 320.38 116.099 318.047 114.38 316.328C112.66 314.608 110.328 313.642 107.896 313.642C105.464 313.642 103.131 314.608 101.412 316.328C99.6922 318.047 98.7261 320.38 98.7261 322.812Z" fill="#45413C"/>
<path d="M160.809 322.812C160.809 325.244 161.775 327.576 163.495 329.296C165.214 331.015 167.547 331.981 169.979 331.981C172.41 331.981 174.743 331.015 176.462 329.296C178.182 327.576 179.148 325.244 179.148 322.812C179.148 320.38 178.182 318.047 176.462 316.328C174.743 314.608 172.41 313.642 169.979 313.642C167.547 313.642 165.214 314.608 163.495 316.328C161.775 318.047 160.809 320.38 160.809 322.812Z" fill="#45413C"/>
<path d="M110.238 386.477C110.337 378.932 113.405 371.729 118.776 366.428C124.147 361.128 131.39 358.156 138.936 358.156C146.482 358.156 153.725 361.128 159.096 366.428C164.467 371.729 167.535 378.932 167.635 386.477H110.238Z" fill="#FFA694" stroke="#45413C" stroke-width="1.50648" stroke-linecap="round" stroke-linejoin="round"/>
<path d="M286.212 322.258C286.212 343.879 294.801 364.614 310.089 379.902C325.377 395.19 346.112 403.779 367.733 403.779C389.354 403.779 410.089 395.19 425.377 379.902C440.665 364.614 449.254 343.879 449.254 322.258C449.254 300.637 440.665 279.902 425.377 264.614C410.089 249.326 389.354 240.737 367.733 240.737C346.112 240.737 325.377 249.326 310.089 264.614C294.801 279.902 286.212 300.637 286.212 322.258Z" fill="#FFE500"/>
<path d="M367.732 264.675C387.279 264.677 406.174 271.701 420.975 284.467C435.777 297.232 445.5 314.891 448.373 334.225C450.088 322.637 449.285 310.816 446.019 299.566C442.753 288.317 437.101 277.903 429.448 269.035C421.795 260.166 412.321 253.051 401.671 248.174C391.02 243.297 379.444 240.773 367.73 240.773C356.016 240.773 344.44 243.297 333.789 248.174C323.139 253.051 313.665 260.166 306.012 269.035C298.359 277.903 292.707 288.317 289.441 299.566C286.175 310.816 285.372 322.637 287.086 334.225C289.959 314.889 299.683 297.23 314.486 284.464C329.288 271.698 348.185 264.675 367.732 264.675Z" fill="#FFF48C"/>
<path d="M286.212 322.258C286.212 343.879 294.801 364.614 310.089 379.902C325.377 395.19 346.112 403.779 367.733 403.779C389.354 403.779 410.089 395.19 425.377 379.902C440.665 364.614 449.254 343.879 449.254 322.258C449.254 300.637 440.665 279.902 425.377 264.614C410.089 249.326 389.354 240.737 367.733 240.737C346.112 240.737 325.377 249.326 310.089 264.614C294.801 279.902 286.212 300.637 286.212 322.258V322.258Z" stroke="#45413C" stroke-width="1.50648" stroke-linecap="round" stroke-linejoin="round"/>
<path d="M377.376 306.979C377.376 309.41 378.342 311.743 380.061 313.462C381.781 315.182 384.113 316.148 386.545 316.148C388.977 316.148 391.31 315.182 393.029 313.462C394.749 311.743 395.715 309.41 395.715 306.979C395.715 304.547 394.749 302.214 393.029 300.495C391.31 298.775 388.977 297.809 386.545 297.809C384.113 297.809 381.781 298.775 380.061 300.495C378.342 302.214 377.376 304.547 377.376 306.979Z" fill="#45413C"/>
<path d="M315.293 306.979C315.293 308.183 315.53 309.375 315.991 310.488C316.452 311.6 317.127 312.611 317.978 313.462C318.83 314.314 319.841 314.989 320.953 315.45C322.066 315.911 323.258 316.148 324.462 316.148C325.667 316.148 326.859 315.911 327.971 315.45C329.084 314.989 330.095 314.314 330.946 313.462C331.798 312.611 332.473 311.6 332.934 310.488C333.395 309.375 333.632 308.183 333.632 306.979C333.632 305.774 333.395 304.582 332.934 303.469C332.473 302.357 331.798 301.346 330.946 300.495C330.095 299.643 329.084 298.968 327.971 298.507C326.859 298.046 325.667 297.809 324.462 297.809C323.258 297.809 322.066 298.046 320.953 298.507C319.841 298.968 318.83 299.643 317.978 300.495C317.127 301.346 316.452 302.357 315.991 303.469C315.53 304.582 315.293 305.774 315.293 306.979Z" fill="#45413C"/>
<path d="M384.201 341.945C384.251 345.746 383.546 349.519 382.126 353.045C380.707 356.571 378.601 359.78 375.931 362.485C373.261 365.191 370.08 367.339 366.573 368.805C363.066 370.271 359.303 371.026 355.502 371.026C351.701 371.026 347.938 370.271 344.431 368.805C340.924 367.339 337.743 365.191 335.073 362.485C332.404 359.78 330.298 356.571 328.878 353.045C327.458 349.519 326.753 345.746 326.804 341.945H384.201Z" fill="#FFA694" stroke="#45413C" stroke-width="1.50648" stroke-linecap="round" stroke-linejoin="round"/>
<path d="M199.106 212.05L166.235 244.921C165.168 245.987 163.809 246.713 162.329 247.007C160.85 247.301 159.317 247.149 157.923 246.573C156.53 245.996 155.339 245.019 154.5 243.765C153.662 242.511 153.213 241.037 153.212 239.529V212.05H119.099C114.231 212.05 109.562 210.117 106.12 206.675C102.678 203.232 100.744 198.564 100.744 193.696V98.8402C100.743 96.4294 101.218 94.0422 102.14 91.8147C103.062 89.5873 104.414 87.5633 106.118 85.8584C107.823 84.1535 109.846 82.8011 112.073 81.8783C114.301 80.9556 116.688 80.4807 119.099 80.4807H257.102C261.97 80.482 266.639 82.4169 270.081 85.8599C273.523 89.3028 275.456 93.9718 275.456 98.8402V193.696C275.456 198.564 273.522 203.232 270.08 206.675C266.638 210.117 261.97 212.05 257.102 212.05H199.106Z" fill="white" stroke="#45413C" stroke-width="1.50648" stroke-linecap="round" stroke-linejoin="round"/>
<path d="M226.988 174.179C228.133 173.032 228.775 171.478 228.775 169.858C228.775 168.238 228.133 166.684 226.988 165.537L209.705 148.254C209.42 147.971 209.195 147.634 209.041 147.263C208.887 146.893 208.807 146.495 208.807 146.094C208.807 145.692 208.887 145.295 209.041 144.924C209.195 144.553 209.42 144.216 209.705 143.933L226.988 126.65C228.133 125.503 228.775 123.949 228.775 122.329C228.775 120.709 228.133 119.155 226.988 118.009L216.184 107.204C215.037 106.06 213.483 105.417 211.863 105.417C210.243 105.417 208.689 106.06 207.542 107.204L190.259 124.487C189.976 124.772 189.639 124.998 189.268 125.152C188.898 125.306 188.5 125.385 188.099 125.385C187.697 125.385 187.3 125.306 186.929 125.152C186.558 124.998 186.222 124.772 185.938 124.487L168.655 107.204C167.508 106.06 165.955 105.417 164.334 105.417C162.714 105.417 161.16 106.06 160.014 107.204L149.214 118.009C148.07 119.155 147.427 120.709 147.427 122.329C147.427 123.949 148.07 125.503 149.214 126.65L166.487 143.933C167.059 144.507 167.381 145.284 167.381 146.094C167.381 146.904 167.059 147.681 166.487 148.254L149.214 165.537C148.07 166.684 147.427 168.238 147.427 169.858C147.427 171.478 148.07 173.032 149.214 174.179L160.014 184.978C161.16 186.123 162.714 186.765 164.334 186.765C165.955 186.765 167.508 186.123 168.655 184.978L185.938 167.695C186.512 167.123 187.289 166.801 188.099 166.801C188.909 166.801 189.686 167.123 190.259 167.695L207.542 184.978C208.689 186.123 210.243 186.765 211.863 186.765C213.483 186.765 215.037 186.123 216.184 184.978L226.988 174.179Z" fill="#FF6242" stroke="#E04122" stroke-width="1.50648" stroke-linecap="round" stroke-linejoin="round"/>
<path d="M290.659 196.422L323.238 229.001C324.293 230.064 325.64 230.79 327.109 231.085C328.577 231.38 330.1 231.231 331.484 230.658C332.867 230.085 334.049 229.112 334.878 227.865C335.708 226.618 336.147 225.152 336.14 223.654V196.422H393.985C396.374 196.422 398.74 195.951 400.947 195.037C403.154 194.122 405.159 192.782 406.848 191.093C408.537 189.403 409.877 187.397 410.79 185.19C411.704 182.983 412.174 180.617 412.174 178.228V84.2224C412.174 81.8335 411.704 79.4678 410.79 77.2605C409.877 75.0532 408.537 73.0475 406.848 71.358C405.159 69.6685 403.154 68.3283 400.947 67.4139C398.74 66.4996 396.374 66.0289 393.985 66.0289H257.204C252.379 66.0289 247.751 67.9457 244.339 71.3577C240.928 74.7696 239.011 79.3972 239.011 84.2224V178.228C239.011 183.053 240.928 187.681 244.339 191.093C247.751 194.505 252.379 196.422 257.204 196.422H290.659Z" fill="white" stroke="#45413C" stroke-width="1.50648" stroke-linecap="round" stroke-linejoin="round"/>
<path d="M373.85 114.65C375.366 113.4 376.324 111.598 376.512 109.642C376.701 107.686 376.105 105.735 374.856 104.218L366.617 94.2031C365.367 92.687 363.565 91.7295 361.609 91.5408C359.653 91.3522 357.702 91.9479 356.185 93.1971L308.978 132.039L298.39 119.162C297.141 117.646 295.34 116.689 293.385 116.5C291.429 116.311 289.479 116.907 287.963 118.156L277.948 126.395C276.432 127.646 275.475 129.447 275.286 131.403C275.097 133.359 275.693 135.31 276.942 136.827L287.54 149.704L300.488 165.438C301.737 166.954 303.538 167.911 305.493 168.1C307.448 168.288 309.398 167.693 310.915 166.444L326.654 153.497L373.85 114.65Z" fill="#6DD627" stroke="#46B000" stroke-width="1.50648" stroke-linecap="round" stroke-linejoin="round"/>
<path d="M132.936 456.293C269.464 548.27 508.03 456.293 493.767 271.09" stroke="#466DA3" stroke-width="5"/>
<path d="M474.224 180.16C474.195 182.294 478.227 183.473 491.41 185.252C505.363 187.123 508.37 186.895 507.685 184.254C506.709 180.626 474.346 176.734 474.224 180.16Z" fill="#466DA3"/>
<path d="M463.359 96.6169C458.229 95.3592 457.624 96.3381 454.985 110.124C452.246 124.355 452.167 127.216 454.345 128.815C458.299 131.694 460.03 128.549 464.148 111.4C467.18 98.7432 467.146 97.5451 463.359 96.6169Z" fill="#466DA3"/>
<path d="M492.497 128.842C488.71 127.873 487.369 128.465 483.136 132.901C470.632 146.133 460.587 154.047 467.954 155.753C470.962 156.475 473.555 154.387 488.727 139.663C497.073 131.463 497.566 130.18 492.497 128.842Z" fill="#466DA3"/>
</g>
<defs>
<clipPath id="clip0_1055_33">
<rect width="503" height="503" fill="white"/>
</clipPath>
</defs>
</svg>
