<svg width="35" height="35" viewBox="0 0 35 35" fill="none" xmlns="http://www.w3.org/2000/svg">
<g opacity="0.7">
<rect width="35" height="35" rx="7" fill="#72B686"/>
<path d="M26.7469 7.92744C22.8084 4.08047 16.56 3.81065 12.1448 5.89531C4.53608 9.48785 2.4409 20.2722 7.01479 25.7194C12.0593 31.7268 19.8756 31.2483 24.0723 28.203C29.5116 24.2558 32.423 17.1079 28.7449 11.1556" stroke="white" stroke-width="2" stroke-miterlimit="1.5" stroke-linecap="round" stroke-linejoin="round"/>
<path d="M13.2872 12.9104C13.2729 13.1588 13.2519 13.4061 13.2388 13.6546" stroke="white" stroke-width="2" stroke-miterlimit="1.5" stroke-linecap="round" stroke-linejoin="round"/>
<path d="M20.8221 12.8762C20.8206 13.1652 20.8213 13.4541 20.8236 13.7431" stroke="white" stroke-width="2" stroke-miterlimit="1.5" stroke-linecap="round" stroke-linejoin="round"/>
<path d="M19.0924 18.2341C18.7479 17.7027 18.1088 17.1461 17.4573 17.0369C13.9991 16.4579 13.2489 22.513 15.6897 24.0381C16.9582 24.8307 18.3992 24.2569 19.1554 23.0583C19.9596 21.7846 19.9867 19.611 19.0924 18.2341Z" stroke="white" stroke-width="2" stroke-miterlimit="1.5" stroke-linecap="round" stroke-linejoin="round"/>
</g>
</svg>
