<svg width="35" height="35" viewBox="0 0 35 35" fill="none" xmlns="http://www.w3.org/2000/svg">
<g opacity="0.7">
<rect width="35" height="35" rx="7" fill="#45A353"/>
<path d="M14.3006 21.3481C12.8535 21.627 11.4582 21.8799 10.0381 22.3126C9.16638 16.5907 8.52953 10.8366 8.23682 5.05545C10.3008 4.43061 12.3923 4.2835 14.5377 4.40397C14.2364 10.0444 14.5302 15.7002 14.3148 21.3455L14.3006 21.3481Z" stroke="white" stroke-width="2" stroke-miterlimit="1.5" stroke-linecap="round" stroke-linejoin="round"/>
<path d="M13.1467 25.442C10.337 24.7132 8.62277 28.5576 11.0489 30.1844C13.1948 31.6232 15.9752 28.7569 14.5814 26.6369" stroke="white" stroke-width="2" stroke-miterlimit="1.5" stroke-linecap="round" stroke-linejoin="round"/>
<path d="M26.7506 8.43185C26.0563 13.008 25.5058 17.6352 24.5582 22.1689L19.9385 21.4318C19.9385 17.255 19.9262 12.251 20.247 7.68917C22.4086 7.67303 24.6599 7.84941 26.7506 8.43222V8.43185Z" stroke="white" stroke-width="2" stroke-miterlimit="1.5" stroke-linecap="round" stroke-linejoin="round"/>
<path d="M22.6506 25.8474C20.3036 25.1831 18.6895 28.6912 20.7716 30.0572C22.9669 31.4975 25.2047 28.2349 23.6312 26.4125" stroke="white" stroke-width="2" stroke-miterlimit="1.5" stroke-linecap="round" stroke-linejoin="round"/>
</g>
</svg>
