<svg width="90" height="90" viewBox="0 0 90 90" fill="none" xmlns="http://www.w3.org/2000/svg">
<path d="M85.0593 62.5304C83.9843 46.1997 82.6024 34.2048 81.1568 17.0345C76.5104 22.2108 69.5247 24.3357 64.1941 24.7314C53.195 25.5468 46.0598 20.0087 35.1968 19.1604C24.1794 18.2997 14.733 22.3594 5.04053 27.0677C6.57681 42.1429 8.02817 57.552 8.26652 72.7131C15.0852 69.3761 22.094 66.4406 29.788 66.2746C37.0351 66.1183 43.9339 69.1909 51.0894 69.904C61.9475 70.9867 75.9478 68.4671 85.0593 62.5304Z" stroke="#628AFE" stroke-width="4.5" stroke-miterlimit="1.5" stroke-linecap="round" stroke-linejoin="round"/>
<path d="M48.0877 36.3344C45.5352 36.0787 42.7242 36.0555 40.5906 37.6729C38.8594 38.9853 37.9812 41.3756 39.9411 42.9707C42.7802 45.28 47.4266 43.8103 50.0041 46.6619C51.7826 48.6295 50.3612 51.3132 48.4071 52.4712C46.892 53.3676 45.0566 53.4651 43.3505 53.22C41.5324 52.9594 39.6902 52.7549 37.8799 52.4412" stroke="#628AFE" stroke-width="4.5" stroke-miterlimit="1.5" stroke-linecap="round" stroke-linejoin="round"/>
<path d="M44.5322 36.3634C44.5592 35.3019 44.6278 34.2471 44.5921 33.1837" stroke="#628AFE" stroke-width="4.5" stroke-miterlimit="1.5" stroke-linecap="round" stroke-linejoin="round"/>
<path d="M44.1963 53.2616C44.2291 54.2662 44.2619 55.2688 44.3169 56.2724" stroke="#628AFE" stroke-width="4.5" stroke-miterlimit="1.5" stroke-linecap="round" stroke-linejoin="round"/>
<path d="M30.3559 56.5552C27.3856 56.1788 24.2021 56.4017 21.4075 57.5289C20.2919 55.6433 18.1245 54.6339 15.9697 54.7574C15.4795 48.9799 15.1108 43.1619 14.7036 37.3806C17.1663 35.9312 18.5598 33.5419 18.746 30.7279C24.0072 27.6496 29.4932 26.5369 35.4617 27.7876" stroke="#628AFE" stroke-width="4.5" stroke-miterlimit="1.5" stroke-linecap="round" stroke-linejoin="round"/>
<path d="M55.9746 33.0699C59.9871 33.5775 64.0951 33.675 68.1191 33.2475C69.4933 34.5503 71.3471 35.5732 73.2636 35.7227C73.5424 40.9936 74.6435 46.2094 75.1057 51.4725C72.4115 52.6151 69.5763 54.5923 69.391 57.7894C65.1506 58.7773 60.7396 58.7744 56.5005 57.7807" stroke="#628AFE" stroke-width="4.5" stroke-miterlimit="1.5" stroke-linecap="round" stroke-linejoin="round"/>
</svg>
