<svg width="84" height="80" viewBox="0 0 84 80" fill="none" xmlns="http://www.w3.org/2000/svg">
<path d="M60.6971 10.899C37.939 -3.26979 14.0047 11.6967 9.99765 28.9269C7.32177 40.4323 10.765 51.9685 20.9047 60.9623C19.47 66.9136 19.0403 70.1886 17.892 74.9424C23.0843 72.8168 29.2206 69.2407 32.907 67.5706C33.1304 67.4703 49.3748 74.4475 64.1584 61.7935C80.12 48.1308 78.2934 21.8545 60.6971 10.899Z" stroke="#628AFE" stroke-width="4.5" stroke-miterlimit="1.5" stroke-linecap="round" stroke-linejoin="round"/>
<path d="M62.8523 46.3783C61.0419 48.6411 57.9076 51.3852 54.93 52.3287C50.2303 53.8178 46.0368 52.641 40.4203 48.9731C31.4037 43.0845 21.8782 35.2589 27.1075 25.3988C27.756 24.1756 28.4828 22.9859 29.4456 21.9608C31.736 23.6575 35.7773 26.9908 37.9515 28.8239C37.4436 30.1088 36.6726 31.2154 37.4201 33.5005C37.9407 35.0908 39.5088 36.1776 40.7688 37.2636C44.0815 40.1191 49.5107 44.45 53.1584 39.7357C56.3864 42.0002 59.4901 44.2991 62.8523 46.3783Z" stroke="#628AFE" stroke-width="4.5" stroke-miterlimit="1.5" stroke-linecap="round" stroke-linejoin="round"/>
</svg>
